<?xml version="1.0" standalone="no"?>
<!DOCTYPE svg PUBLIC "-//W3C//DTD SVG 20010904//EN"
 "http://www.w3.org/TR/2001/REC-SVG-20010904/DTD/svg10.dtd">
<svg version="1.0" xmlns="http://www.w3.org/2000/svg"
 width="546.000000pt" height="546.000000pt" viewBox="0 0 546.000000 546.000000"
 preserveAspectRatio="xMidYMid meet">
<metadata>
Created by potrace 1.11, written by Peter Selinger 2001-2013
</metadata>
<g transform="translate(0.000000,546.000000) scale(0.100000,-0.100000)"
fill="#000000" stroke="none">
<path d="M337 5423 c-7 -56 -5 -580 2 -616 7 -34 -9 -26 201 -92 386 -120
1789 -559 1965 -615 50 -15 121 -37 158 -49 l68 -21 252 79 c139 44 281 88
317 99 147 45 529 165 580 182 63 20 203 64 210 65 3 0 28 8 55 17 28 9 118
37 200 63 83 25 191 59 240 75 50 15 158 49 240 75 314 97 289 86 297 131 7
45 6 630 -2 637 -3 3 -100 -22 -215 -55 -116 -33 -302 -86 -415 -118 -188 -53
-579 -165 -1225 -350 -460 -132 -530 -151 -550 -147 -11 3 -45 12 -75 20 -30
9 -86 25 -125 36 -38 11 -110 31 -160 46 -49 15 -112 33 -140 40 -27 7 -90 25
-140 40 -49 15 -97 28 -105 30 -8 2 -134 38 -280 80 -146 42 -272 78 -280 80
-8 2 -127 35 -265 75 -137 40 -257 74 -265 76 -8 2 -69 19 -135 38 -66 19
-174 50 -240 69 -66 19 -130 37 -141 41 -19 6 -22 2 -27 -31z"/>
<path d="M385 4407 c2 -7 6 -44 10 -83 3 -39 7 -80 9 -90 2 -11 7 -50 11 -87
3 -37 8 -76 9 -85 2 -9 7 -39 10 -67 15 -101 18 -122 32 -210 19 -120 23 -141
35 -200 5 -27 12 -66 15 -85 11 -73 66 -321 105 -475 370 -1461 1053 -2472
2007 -2973 l103 -53 117 62 c425 225 809 567 1126 1003 90 123 218 323 271
421 282 524 452 968 605 1586 32 131 86 378 104 479 2 14 9 52 15 85 6 33 13
69 15 80 2 11 6 41 10 66 4 25 9 57 11 70 2 13 9 60 15 104 6 44 13 91 15 105
2 14 7 50 10 80 3 30 8 66 10 80 2 14 6 57 10 95 3 39 8 78 11 87 4 15 -9 12
-88 -16 -112 -42 -1237 -464 -1258 -473 -8 -3 -19 -7 -25 -9 -5 -1 -226 -84
-490 -184 l-480 -181 -55 17 c-30 9 -59 20 -65 24 -5 3 -50 21 -100 39 -49 18
-124 46 -165 62 -119 45 -413 155 -850 319 -223 83 -439 164 -480 180 -77 29
-423 159 -562 211 -47 17 -76 23 -73 16z"/>
</g>
</svg>
